<?xml version="1.0" encoding="UTF-8" standalone="no"?>
<!-- Created with Inkscape (http://www.inkscape.org/) -->

<svg
   xmlns:dc="http://purl.org/dc/elements/1.1/"
   xmlns:cc="http://creativecommons.org/ns#"
   xmlns:rdf="http://www.w3.org/1999/02/22-rdf-syntax-ns#"
   xmlns:svg="http://www.w3.org/2000/svg"
   xmlns="http://www.w3.org/2000/svg"
   xmlns:sodipodi="http://sodipodi.sourceforge.net/DTD/sodipodi-0.dtd"
   xmlns:inkscape="http://www.inkscape.org/namespaces/inkscape"
   width="1001.017"
   height="412.22299"
   id="svg2"
   version="1.1"
   inkscape:version="0.91 r13725"
   sodipodi:docname="HBO 1980.svg">
  <metadata
     id="metadata20">
    <rdf:RDF>
      <cc:Work
         rdf:about="">
        <dc:format>image/svg+xml</dc:format>
        <dc:type
           rdf:resource="http://purl.org/dc/dcmitype/StillImage" />
        <dc:title></dc:title>
      </cc:Work>
    </rdf:RDF>
  </metadata>
  <defs
     id="defs18" />
  <sodipodi:namedview
     pagecolor="#ffffff"
     bordercolor="#666666"
     borderopacity="1"
     objecttolerance="10"
     gridtolerance="10"
     guidetolerance="10"
     inkscape:pageopacity="0"
     inkscape:pageshadow="2"
     inkscape:window-width="1366"
     inkscape:window-height="705"
     id="namedview16"
     showgrid="false"
     inkscape:zoom="0.25"
     inkscape:cx="677.56914"
     inkscape:cy="-10.713964"
     inkscape:window-x="-8"
     inkscape:window-y="-8"
     inkscape:window-maximized="1"
     inkscape:current-layer="layer1" />
  <g
     inkscape:label="Layer 1"
     inkscape:groupmode="layer"
     id="layer1"
     transform="translate(-283.315,-449.58895)">
    <path
       style="fill:#000000;fill-rule:nonzero;stroke:none"
       d="m 577.02513,859.91169 -109.62606,0 0,-156.57523 -71.15462,0 0,156.57523 -112.54942,0 -0.38003,-403.57002 112.92945,0 0,150.11461 71.15462,0 0,-150.11461 109.62606,0 0,403.57002 z m 502.29207,1.90019 c 113.0462,-0.0585 205.0446,-93.95684 205.0151,-207.03244 -0.029,-115.44353 -91.9689,-205.10303 -205.0151,-205.19077 -112.90033,-0.0878 -170.60749,83.02347 -184.84427,116.58369 0.1169,-50.36956 -49.52173,-109.80145 -107.57972,-109.88917 l -187.0659,0 0,403.48234 174.40776,0.0585 c 70.3361,0 120.35477,-60.92283 120.44247,-113.16331 16.04927,32.88782 71.73933,115.18046 184.63966,115.15122 z M 759.61826,697.63591 c 16.13696,0 28.85358,15.93229 28.85358,34.0864 0,18.15405 -12.71662,34.11563 -28.85358,34.11563 l -55.45614,0 0,-68.20203 55.45614,0 z m 0.20476,-151.48858 c 16.13692,0 28.85353,15.93232 28.85353,34.08639 0,18.15406 -12.71661,34.08639 -28.85353,34.08639 l -55.45624,0 0,-68.17278 55.45624,0 z m 73.84405,108.7198 c 12.71664,-1.60786 33.88177,-16.13694 41.36557,-25.43323 -2.63103,11.51806 -2.83562,44.81515 0.23374,56.30393 -8.50699,-13.1259 -28.6782,-29.26284 -41.59947,-30.8707 z m 143.01085,0 c 0,-56.71323 45.98448,-102.69766 102.69768,-102.69766 56.7425,0 102.7268,45.98443 102.7268,102.69766 0,56.71321 -45.9843,102.69767 -102.7268,102.69767 -56.7132,0 -102.69768,-45.98446 -102.69768,-102.69767 z m 102.69768,80.74324 c 44.6105,0 80.7432,-36.16196 80.7432,-80.74324 0,-44.58126 -36.1327,-80.74322 -80.7432,-80.74322 -44.5813,0 -80.74322,36.16196 -80.74322,80.74322 0,44.58128 36.16192,80.74324 80.74322,80.74324"
       id="path9056"
       inkscape:connector-curvature="0" />
  </g>
</svg>
